<svg aria-hidden="true" style="width:0;height:0;position:absolute;overflow:hidden" xmlns="http://www.w3.org/2000/svg"><defs><symbol id="check-mark" viewBox="0 0 32 32"><path fill="#6ebf4b" style="fill:var(--color1,#6ebf4b)" d="M4.8 0h22.4A4.8 4.8 0 0 1 32 4.8v22.4a4.8 4.8 0 0 1-4.8 4.8H4.8A4.8 4.8 0 0 1 0 27.2V4.8A4.8 4.8 0 0 1 4.8 0z"/><path fill="none" stroke="#fff" style="stroke:var(--color2,#fff)" stroke-linecap="round" stroke-width="2.4" d="m9.6 15.2 4 4 8-8"/></symbol><symbol id="note" viewBox="0 0 32 32"><path fill="#feb618" style="fill:var(--color3,#feb618)" d="M27 1.288v29.425c0 .711-.576 1.288-1.288 1.288H4.049a1.288 1.288 0 0 1-1.288-1.288V1.288C2.761.576 3.337 0 4.049 0h5.329v1.864c0 .356.288.644.644.644h9.782a.644.644 0 0 0 .644-.644V0h5.264C26.423 0 27 .576 27 1.288z"/><path fill="#fb9927" style="fill:var(--color4,#fb9927)" d="M27 1.288v29.425c0 .711-.577 1.288-1.288 1.288h-1.268c.711 0 1.288-.576 1.288-1.288V1.288C25.732.576 25.155 0 24.444 0h1.268C26.423 0 27 .576 27 1.288z"/><path fill="#fb9927" style="fill:var(--color4,#fb9927)" d="M27 7.334v7.279a4.078 4.078 0 1 1 0-7.28z"/><path fill="#f8f3f1" style="fill:var(--color5,#f8f3f1)" d="M24.908 2.55v26.855c0 .333-.27.604-.605.604H5.457a.604.604 0 0 1-.605-.604V2.55c0-.333.271-.605.605-.605h3.926c.04.317.311.562.639.562h9.782a.644.644 0 0 0 .639-.562h3.861c.334 0 .605.271.605.605z"/><path fill="#efe2dd" style="fill:var(--color6,#efe2dd)" d="M8.603 1.946v1.78c0 .355.288.644.644.644h.366v.863c0 .825.671 1.496 1.496 1.496h7.545c.825 0 1.496-.671 1.496-1.496V4.37h.366a.644.644 0 0 0 .644-.644v-1.78H8.605zm10.58 3.287a.53.53 0 0 1-.53.53h-7.545a.53.53 0 0 1-.53-.53V4.37h8.605v.863zM24.909 2.55v26.855a.604.604 0 0 1-.604.604h-1.399a.604.604 0 0 0 .604-.604V2.55a.604.604 0 0 0-.604-.604h1.399c.334 0 .605.271.605.604z"/><path fill="#efe2dd" style="fill:var(--color6,#efe2dd)" d="M22.678 9.035H7.083a.483.483 0 1 1 0-.966h15.595a.483.483 0 1 1 0 .966zM7.489 27.702a.484.484 0 0 1-.025-.965 3.048 3.048 0 0 0 1.021-.237 1.609 1.609 0 0 1 .011-.391 3.7 3.7 0 0 1 1.092-2.095c.555-.533 1.077-.435 1.382-.166a.953.953 0 0 1 .27 1.003 4.057 4.057 0 0 1-1.218 1.822c.142-.054.266-.132.31-.161.245-.162.612-.363.962-.228a.632.632 0 0 1 .346.329.624.624 0 0 0 .125-.05c.268-.14.525-.306.764-.494a.713.713 0 0 1 .771-.078c.209.105.35.297.389.521.223-.117.432-.26.623-.427a.725.725 0 0 1 .913-.034c.791.602 2.031.491 3.131.341a.483.483 0 1 1 .131.957c-1.229.168-2.618.284-3.684-.415a4.127 4.127 0 0 1-.877.537c-.091.041-.303.138-.552.09a.772.772 0 0 1-.568-.497c-.191.131-.39.25-.594.356-.134.07-.604.283-1.02.099a.762.762 0 0 1-.291-.225l-.036.023c-.737.488-1.479.501-1.957.055-.438.189-.91.303-1.394.329l-.025.001zm5.248-1.066v.002-.002zm-2.466-1.938-.013.012c-.307.294-.54.657-.682 1.052.302-.305.544-.668.694-1.064zM12.259 15.497h-.065a.483.483 0 1 1 0-.966h.065a.483.483 0 1 1 0 .966zM13.788 15.497h-.065a.483.483 0 1 1 0-.966h.065a.483.483 0 1 1 0 .966zM15.316 15.497h-.065a.483.483 0 1 1 0-.966h.065a.483.483 0 1 1 0 .966zM16.845 15.497h-.065a.483.483 0 1 1 0-.966h.065a.483.483 0 1 1 0 .966zM22.536 13.603H12.019a.483.483 0 1 1 0-.966h10.517a.483.483 0 1 1 0 .966zM14.853 11.79h-2.835a.483.483 0 1 1 0-.966h2.835a.483.483 0 1 1 0 .966zM12.259 21.949h-.065a.483.483 0 1 1 0-.966h.065a.483.483 0 1 1 0 .966zM13.788 21.949h-.065a.483.483 0 1 1 0-.966h.065a.483.483 0 1 1 0 .966zM15.316 21.949h-.065a.483.483 0 1 1 0-.966h.065a.483.483 0 1 1 0 .966zM16.845 21.949h-.065a.483.483 0 1 1 0-.966h.065a.483.483 0 1 1 0 .966zM22.536 20.055H12.019a.483.483 0 1 1 0-.966h10.517a.483.483 0 1 1 0 .966zM14.853 18.242h-2.835a.483.483 0 1 1 0-.966h2.835a.483.483 0 1 1 0 .966z"/><path fill="#fca62f" style="fill:var(--color7,#fca62f)" d="M18.653 6.149h-7.545a1.498 1.498 0 0 1-1.496-1.496V3.018a.483.483 0 1 1 .966 0v1.636c0 .292.238.53.53.53h7.545a.53.53 0 0 0 .53-.53V3.018a.483.483 0 1 1 .966 0v1.636c0 .825-.671 1.496-1.496 1.496z"/><path fill="#12c65a" style="fill:var(--color8,#12c65a)" d="M20.514 3.404H9.246a.644.644 0 0 1-.644-.644V0h12.555v2.76a.644.644 0 0 1-.644.644z"/><path fill="#0fad4e" style="fill:var(--color9,#0fad4e)" d="M21.158 0v2.76a.644.644 0 0 1-.644.644h-1.268a.644.644 0 0 0 .644-.644V0h1.268z"/><path fill="#fff" style="fill:var(--color2,#fff)" d="M10.898 2.185h-.062a.483.483 0 1 1 0-.966h.062a.483.483 0 1 1 0 .966zM18.925 2.185h-.062a.483.483 0 1 1 0-.966h.062a.483.483 0 1 1 0 .966z"/><path fill="#12c65a" style="fill:var(--color8,#12c65a)" d="M25.161 13.918a4.077 4.077 0 1 0 0-8.154 4.077 4.077 0 0 0 0 8.154z"/><path fill="#0fad4e" style="fill:var(--color9,#0fad4e)" d="M29.239 9.84a4.078 4.078 0 0 1-4.705 4.03 4.079 4.079 0 0 0 0-8.059 4.078 4.078 0 0 1 4.705 4.03z"/><path fill="#fff" style="fill:var(--color2,#fff)" d="M24.272 11.611a.48.48 0 0 1-.341-.141l-.751-.751a.482.482 0 1 1 .683-.683l.41.41 2.234-2.234a.482.482 0 1 1 .683.683l-2.575 2.575a.483.483 0 0 1-.341.142z"/><path fill="#b5ccbe" style="fill:var(--color10,#b5ccbe)" d="M9.561 13.818H7.694a.322.322 0 0 1-.322-.322v-1.867c0-.178.144-.322.322-.322h1.867c.178 0 .322.144.322.322v1.867a.322.322 0 0 1-.322.322zM9.561 20.27H7.694a.322.322 0 0 1-.322-.322v-1.867c0-.178.144-.322.322-.322h1.867c.178 0 .322.144.322.322v1.867a.322.322 0 0 1-.322.322z"/></symbol><symbol id="location" viewBox="0 0 32 32"><path fill="#28a248" style="fill:var(--color11,#28a248)" d="m31.992 29.73-2.514-13.851a.468.468 0 0 0-.234-.326l-6.328-3.519a.466.466 0 0 0-.265-.057l1.151 14.851-.039.017 7.573 3.397a.464.464 0 0 0 .482-.059.47.47 0 0 0 .173-.453z"/><path fill="#32bd56" style="fill:var(--color12,#32bd56)" d="m16 15.398-6.472-3.371a.47.47 0 0 0-.181-.05L8.196 26.828l7.611 3.415a.46.46 0 0 0 .192.041V15.399z"/><path fill="#56d777" style="fill:var(--color13,#56d777)" d="M9.348 11.977a.47.47 0 0 0-.265.057l-6.328 3.519a.468.468 0 0 0-.234.326L.007 29.73a.468.468 0 0 0 .462.553.477.477 0 0 0 .192-.041l7.532-3.379 1.154-14.886z"/><path fill="#2fb652" style="fill:var(--color14,#2fb652)" d="M22.652 11.977a.468.468 0 0 0-.181.051l-6.472 3.371v14.885a.477.477 0 0 0 .192-.041l7.611-3.415-1.151-14.851z"/><path fill="#ffdb56" style="fill:var(--color15,#ffdb56)" d="m1.76 20.077-.511 2.814 7.562-3.994.205-2.641-7.256 3.821z"/><path fill="#a8eefc" style="fill:var(--color16,#a8eefc)" d="m8.879 18.018-.068.878-7.562 3.994-1.241 6.84a.468.468 0 0 0 .462.553.477.477 0 0 0 .192-.041l7.532-3.379.686-8.845z"/><path fill="#feb618" style="fill:var(--color3,#feb618)" d="m16.002 17.255-6.986-.999-.205 2.641L16 29.814v-3.97l-4.29-6.755 4.292.513v-2.348zM28.747 15.276l-3.04-1.691-2.878.672.036.465.142 1.833 5.739-1.28z"/><path fill="#ffdb56" style="fill:var(--color15,#ffdb56)" d="m23.263 19.849-.433-5.591-6.827 2.997v2.348l4.46-1.939 2.801 2.185z"/><path fill="#feb618" style="fill:var(--color3,#feb618)" d="m31.992 29.73-.631-3.479-8.354-9.695.255 3.292 8.567 10.326a.47.47 0 0 0 .163-.444z"/><path fill="#ff4415" style="fill:var(--color17,#ff4415)" d="M16.03 1.717c-3.623 0-6.57 2.945-6.57 6.565 0 2.239 1.063 4.643 3.16 7.145a22.398 22.398 0 0 0 3.123 3.069.472.472 0 0 0 .574 0 22.398 22.398 0 0 0 3.123-3.069c2.097-2.502 3.16-4.906 3.16-7.145 0-3.62-2.947-6.565-6.57-6.565zm2.433 6.564c0 1.343-1.089 2.431-2.433 2.431a2.432 2.432 0 1 1 0-4.862 2.432 2.432 0 0 1 2.433 2.431z"/><path fill="#e13e15" style="fill:var(--color18,#e13e15)" d="M16.03 1.717c-.287 0-.57.019-.847.054 3.224.417 5.723 3.177 5.723 6.51 0 2.239-1.063 4.643-3.16 7.145a23.342 23.342 0 0 1-2.563 2.604c.328.285.537.447.56.465a.472.472 0 0 0 .574 0 22.398 22.398 0 0 0 3.123-3.069c2.097-2.502 3.16-4.906 3.16-7.145 0-3.62-2.947-6.565-6.57-6.565z"/><path fill="#ffbf33" style="fill:var(--color19,#ffbf33)" d="m16.192 30.242 2.83-1.27-3.023-3.128v4.439a.477.477 0 0 0 .192-.041z"/><path fill="#1ea4e9" style="fill:var(--color20,#1ea4e9)" d="M29.478 15.88a.468.468 0 0 0-.234-.326l-.498-.277-5.739 1.28 8.354 9.695-1.883-10.371zM16 30.283v-.469L8.811 18.897l-.615 7.931 7.611 3.415a.46.46 0 0 0 .192.041z"/></symbol><symbol id="leaf" viewBox="0 0 41 32"><path fill="#a0cc00" style="fill:var(--color21,#a0cc00)" d="M.416 31.288a1.892 1.892 0 0 0 1.608.707 1.89 1.89 0 0 0 1.499-.916l2.853-4.756.04-.024a8.654 8.654 0 0 1 7.36-.729 18.704 18.704 0 0 0 12.206.13 17.43 17.43 0 0 0 11.27-11.83L41.141 0l-4.448 2.53a18.212 18.212 0 0 1-14.478 1.536A11.869 11.869 0 0 0 11.4 5.977a11.89 11.89 0 0 0-4.616 8.753l-.308 5.549a8.667 8.667 0 0 1-.9 3.389l-.618 1.237-4.31 3.771a1.895 1.895 0 0 0-.232 2.613z"/><path fill="#85b200" style="fill:var(--color22,#85b200)" d="M21.952 21.398a.678.678 0 0 1-.922.112 9.912 9.912 0 0 0-8.459-1.558l-3.164.862a.672.672 0 0 1-.515-.066.68.68 0 0 1-.318-.411l-.016-.06a.676.676 0 0 1 .477-.833l3.163-.862a11.352 11.352 0 0 1 9.676 1.786.677.677 0 0 1 .119.981l-.04.048zM29.767 16.428a.676.676 0 0 1-.907.232 16.081 16.081 0 0 0-11.169-1.809l-2.156.431-.043.01-2.023.543a.677.677 0 0 1-.831-.48l-.016-.06a.672.672 0 0 1 .068-.515.692.692 0 0 1 .411-.316l2.045-.549.087-.02 2.179-.436a17.496 17.496 0 0 1 12.144 1.964.68.68 0 0 1 .243.952l-.033.053zM31.852 13.29a15.71 15.71 0 0 1-2.22-.158l-2.071-.296-4.035-.609a.679.679 0 0 1-.57-.772l.009-.061a.672.672 0 0 1 .268-.445.688.688 0 0 1 .504-.125l4.029.608 2.065.295a14.15 14.15 0 0 0 4.835-.14.676.676 0 0 1 .787.501l.015.06a.679.679 0 0 1-.528.831 15.508 15.508 0 0 1-3.091.311zM11.073 16.408a.68.68 0 0 1-.938-.194l-.265-.401a5.256 5.256 0 0 1-.81-3.858.682.682 0 0 1 .595-.555.68.68 0 0 1 .287.031l.059.02a.684.684 0 0 1 .451.772c-.17.977.044 1.982.597 2.805l.174.262.096.147a.67.67 0 0 1 .097.51.683.683 0 0 1-.292.43l-.053.035z"/><path fill="#85b200" style="fill:var(--color22,#85b200)" d="M16.341 13.828h-.062a.682.682 0 0 1-.679-.679v-2.715a9.124 9.124 0 0 1 1.154-4.451.67.67 0 0 1 .434-.331.69.69 0 0 1 .538.094l.052.035a.682.682 0 0 1 .214.898 7.713 7.713 0 0 0-.972 3.756v2.715a.682.682 0 0 1-.679.679zM21.659 11.085l-.059-.02a.684.684 0 0 1-.392-.34.67.67 0 0 1-.037-.518l.142-.427a5.229 5.229 0 0 1 2.564-2.983.67.67 0 0 1 .566-.024.67.67 0 0 1 .387.414l.02.059a.682.682 0 0 1-.343.823 3.802 3.802 0 0 0-1.849 2.16l-.142.427a.675.675 0 0 1-.858.429z"/><path fill="#85b200" style="fill:var(--color22,#85b200)" d="m41.142 0-4.384 6.104a16.183 16.183 0 0 1-13.136 6.739 16.17 16.17 0 0 0-13.868 7.852l-6.23 10.383a1.894 1.894 0 0 1-2.123.855 1.9 1.9 0 0 1-.753-3.259l4.31-3.771 2.94-5.613a17.326 17.326 0 0 1 15.347-9.287c4.218 0 8.291-1.539 11.456-4.327l6.441-5.678z"/><path fill="#719600" style="fill:var(--color23,#719600)" d="m6.377 26.323-2.853 4.755a1.894 1.894 0 0 1-2.123.856 1.9 1.9 0 0 1-1.218-1.017 1.906 1.906 0 0 1-.018-1.588c.112-.25.277-.473.483-.654l4.31-3.771 1.419 1.419z"/></symbol><symbol id="search" viewBox="0 0 32 32"><path stroke-width="1.524" d="M26.912 13.837c0 7.221-5.854 13.075-13.075 13.075S.762 21.058.762 13.837C.762 6.616 6.616.762 13.837.762s13.075 5.854 13.075 13.075z"/><path stroke-linecap="round" stroke-width="1.524" d="m30.476 30.476-7.262-7.262"/></symbol><symbol id="cart" viewBox="0 0 34 32"><path d="M10.489 25.135a3.433 3.433 0 1 0 0 6.866 3.433 3.433 0 0 0 0-6.866zm0 5.339a1.907 1.907 0 1 1 0-3.815 1.907 1.907 0 0 1 0 3.815zM24.982 25.135a3.433 3.433 0 1 0 0 6.866 3.433 3.433 0 0 0 0-6.866zm0 5.339a1.907 1.907 0 1 1 0-3.815 1.907 1.907 0 0 1 0 3.815zM32.725 5.111a.951.951 0 0 0-.61-.305L7.286 4.463l-.687-2.098A3.51 3.51 0 0 0 3.319 0H.764a.764.764 0 0 0 0 1.526h2.555c.829.018 1.56.551 1.831 1.335l4.844 14.608-.381.877a3.662 3.662 0 0 0 .343 3.318 3.549 3.549 0 0 0 2.861 1.602h14.837a.763.763 0 1 0 0-1.526H12.817a1.944 1.944 0 0 1-1.602-.915 2.098 2.098 0 0 1-.191-1.831l.305-.687 16.057-1.678a4.193 4.193 0 0 0 3.623-3.204l1.831-7.666a.645.645 0 0 0-.115-.648zm-3.204 7.971a2.593 2.593 0 0 1-2.327 2.021l-15.867 1.64L7.78 5.987l23.38.343-1.64 6.751z"/></symbol></defs></svg>