<svg aria-hidden="true" style="position: absolute; width: 0; height: 0; overflow: hidden;" version="1.1" xmlns="http://www.w3.org/2000/svg" xmlns:xlink="http://www.w3.org/1999/xlink">
    <defs>
        <symbol id="check-mark" viewBox="0 0 32 32">
            <path fill="#6ebf4b" style="fill: var(--color1, #6ebf4b)" d="M4.8 0h22.4c2.651 0 4.8 2.149 4.8 4.8v22.4c0 2.651-2.149 4.8-4.8 4.8h-22.4c-2.651 0-4.8-2.149-4.8-4.8v-22.4c0-2.651 2.149-4.8 4.8-4.8z"></path>
            <path fill="none" stroke="#fff" style="stroke: var(--color2, #fff)" stroke-linejoin="miter" stroke-linecap="round" stroke-miterlimit="4" stroke-width="2.4" d="M9.6 15.2l4 4 8-8"></path>
        </symbol>
        <symbol id="note" viewBox="0 0 32 32">
            <path fill="#feb618" style="fill: var(--color3, #feb618)" d="M27 1.288v29.425c0 0.711-0.576 1.288-1.288 1.288h-21.663c-0.711 0-1.288-0.576-1.288-1.288v-29.425c0-0.712 0.576-1.288 1.288-1.288h5.329v1.864c0 0.356 0.288 0.644 0.644 0.644h9.782c0.355 0 0.644-0.288 0.644-0.644v-1.864h5.264c0.711 0 1.288 0.576 1.288 1.288z"></path>
            <path fill="#fb9927" style="fill: var(--color4, #fb9927)" d="M27 1.288v29.425c0 0.711-0.577 1.288-1.288 1.288h-1.268c0.711 0 1.288-0.576 1.288-1.288v-29.425c-0-0.712-0.577-1.288-1.288-1.288h1.268c0.711 0 1.288 0.576 1.288 1.288z"></path>
            <path fill="#fb9927" style="fill: var(--color4, #fb9927)" d="M27 7.334v7.279c-0.552 0.28-1.177 0.438-1.839 0.438-2.252 0-4.078-1.826-4.078-4.078s1.826-4.078 4.078-4.078c0.662 0 1.286 0.158 1.839 0.438z"></path>
            <path fill="#f8f3f1" style="fill: var(--color5, #f8f3f1)" d="M24.908 2.55v26.855c0 0.333-0.27 0.604-0.605 0.604h-18.846c-0.334 0-0.605-0.27-0.605-0.604v-26.855c0-0.333 0.271-0.605 0.605-0.605h3.926c0.040 0.317 0.311 0.562 0.639 0.562h9.782c0.328 0 0.599-0.245 0.639-0.562h3.861c0.334 0 0.605 0.271 0.605 0.605z"></path>
            <path fill="#efe2dd" style="fill: var(--color6, #efe2dd)" d="M8.603 1.946v1.78c0 0.355 0.288 0.644 0.644 0.644h0.366v0.863c0 0.825 0.671 1.496 1.496 1.496h7.545c0.825 0 1.496-0.671 1.496-1.496v-0.863h0.366c0.355 0 0.644-0.288 0.644-0.644v-1.78h-12.555zM19.183 5.233c0 0.292-0.238 0.53-0.53 0.53h-7.545c-0.292 0-0.53-0.238-0.53-0.53v-0.863h8.605v0.863z"></path>
            <path fill="#efe2dd" style="fill: var(--color6, #efe2dd)" d="M24.909 2.55v26.855c0 0.334-0.271 0.604-0.604 0.604h-1.399c0.334 0 0.604-0.271 0.604-0.604v-26.855c0-0.334-0.271-0.604-0.604-0.604h1.399c0.334 0 0.605 0.271 0.605 0.604z"></path>
            <path fill="#efe2dd" style="fill: var(--color6, #efe2dd)" d="M22.678 9.035h-15.595c-0.267 0-0.483-0.216-0.483-0.483s0.216-0.483 0.483-0.483h15.595c0.267 0 0.483 0.216 0.483 0.483s-0.216 0.483-0.483 0.483z"></path>
            <path fill="#efe2dd" style="fill: var(--color6, #efe2dd)" d="M7.489 27.702c-0.255 0-0.468-0.2-0.482-0.458-0.014-0.266 0.191-0.494 0.457-0.507 0.351-0.018 0.697-0.101 1.021-0.237-0.012-0.127-0.009-0.258 0.011-0.391 0.121-0.791 0.509-1.535 1.092-2.095 0.555-0.533 1.077-0.435 1.382-0.166 0.279 0.247 0.385 0.641 0.27 1.003-0.227 0.711-0.659 1.338-1.218 1.822 0.142-0.054 0.266-0.132 0.31-0.161 0.245-0.162 0.612-0.363 0.962-0.228 0.095 0.037 0.252 0.126 0.346 0.329 0.036-0.010 0.080-0.026 0.125-0.050 0.268-0.14 0.525-0.306 0.764-0.494 0.223-0.176 0.518-0.206 0.771-0.078 0.209 0.105 0.35 0.297 0.389 0.521 0.223-0.117 0.432-0.26 0.623-0.427 0.258-0.226 0.642-0.24 0.913-0.034 0.791 0.602 2.031 0.491 3.131 0.341 0.265-0.036 0.508 0.149 0.544 0.413s-0.149 0.508-0.413 0.544c-1.229 0.168-2.618 0.284-3.684-0.415-0.269 0.215-0.563 0.395-0.877 0.537-0.091 0.041-0.303 0.138-0.552 0.090-0.262-0.050-0.466-0.238-0.568-0.497-0.191 0.131-0.39 0.25-0.594 0.356-0.134 0.070-0.604 0.283-1.020 0.099-0.116-0.052-0.215-0.128-0.291-0.225-0.011 0.007-0.023 0.015-0.036 0.023-0.737 0.488-1.479 0.501-1.957 0.055-0.438 0.189-0.91 0.303-1.394 0.329-0.008 0-0.017 0.001-0.025 0.001zM12.737 26.636c-0 0.001-0 0.001-0 0.002 0-0.001 0-0.001 0-0.002zM10.271 24.698c-0.004 0.004-0.008 0.008-0.013 0.012-0.307 0.294-0.54 0.657-0.682 1.052 0.302-0.305 0.544-0.668 0.694-1.064z"></path>
            <path fill="#efe2dd" style="fill: var(--color6, #efe2dd)" d="M12.259 15.497h-0.065c-0.267 0-0.483-0.216-0.483-0.483s0.216-0.483 0.483-0.483h0.065c0.267 0 0.483 0.216 0.483 0.483s-0.216 0.483-0.483 0.483z"></path>
            <path fill="#efe2dd" style="fill: var(--color6, #efe2dd)" d="M13.788 15.497h-0.065c-0.267 0-0.483-0.216-0.483-0.483s0.216-0.483 0.483-0.483h0.065c0.267 0 0.483 0.216 0.483 0.483s-0.216 0.483-0.483 0.483z"></path>
            <path fill="#efe2dd" style="fill: var(--color6, #efe2dd)" d="M15.316 15.497h-0.065c-0.267 0-0.483-0.216-0.483-0.483s0.216-0.483 0.483-0.483h0.065c0.267 0 0.483 0.216 0.483 0.483s-0.216 0.483-0.483 0.483z"></path>
            <path fill="#efe2dd" style="fill: var(--color6, #efe2dd)" d="M16.845 15.497h-0.065c-0.267 0-0.483-0.216-0.483-0.483s0.216-0.483 0.483-0.483h0.065c0.267 0 0.483 0.216 0.483 0.483s-0.216 0.483-0.483 0.483z"></path>
            <path fill="#efe2dd" style="fill: var(--color6, #efe2dd)" d="M22.536 13.603h-10.517c-0.267 0-0.483-0.216-0.483-0.483s0.216-0.483 0.483-0.483h10.517c0.267 0 0.483 0.216 0.483 0.483s-0.216 0.483-0.483 0.483z"></path>
            <path fill="#efe2dd" style="fill: var(--color6, #efe2dd)" d="M14.853 11.79h-2.835c-0.267 0-0.483-0.216-0.483-0.483s0.216-0.483 0.483-0.483h2.835c0.267 0 0.483 0.216 0.483 0.483s-0.216 0.483-0.483 0.483z"></path>
            <path fill="#efe2dd" style="fill: var(--color6, #efe2dd)" d="M12.259 21.949h-0.065c-0.267 0-0.483-0.216-0.483-0.483s0.216-0.483 0.483-0.483h0.065c0.267 0 0.483 0.216 0.483 0.483s-0.216 0.483-0.483 0.483z"></path>
            <path fill="#efe2dd" style="fill: var(--color6, #efe2dd)" d="M13.788 21.949h-0.065c-0.267 0-0.483-0.216-0.483-0.483s0.216-0.483 0.483-0.483h0.065c0.267 0 0.483 0.216 0.483 0.483s-0.216 0.483-0.483 0.483z"></path>
            <path fill="#efe2dd" style="fill: var(--color6, #efe2dd)" d="M15.316 21.949h-0.065c-0.267 0-0.483-0.216-0.483-0.483s0.216-0.483 0.483-0.483h0.065c0.267 0 0.483 0.216 0.483 0.483s-0.216 0.483-0.483 0.483z"></path>
            <path fill="#efe2dd" style="fill: var(--color6, #efe2dd)" d="M16.845 21.949h-0.065c-0.267 0-0.483-0.216-0.483-0.483s0.216-0.483 0.483-0.483h0.065c0.267 0 0.483 0.216 0.483 0.483s-0.216 0.483-0.483 0.483z"></path>
            <path fill="#efe2dd" style="fill: var(--color6, #efe2dd)" d="M22.536 20.055h-10.517c-0.267 0-0.483-0.216-0.483-0.483s0.216-0.483 0.483-0.483h10.517c0.267 0 0.483 0.216 0.483 0.483s-0.216 0.483-0.483 0.483z"></path>
            <path fill="#efe2dd" style="fill: var(--color6, #efe2dd)" d="M14.853 18.242h-2.835c-0.267 0-0.483-0.216-0.483-0.483s0.216-0.483 0.483-0.483h2.835c0.267 0 0.483 0.216 0.483 0.483s-0.216 0.483-0.483 0.483z"></path>
            <path fill="#fca62f" style="fill: var(--color7, #fca62f)" d="M18.653 6.149h-7.545c-0.825 0-1.496-0.671-1.496-1.496v-1.635c0-0.267 0.216-0.483 0.483-0.483s0.483 0.216 0.483 0.483v1.636c0 0.292 0.238 0.53 0.53 0.53h7.545c0.292 0 0.53-0.238 0.53-0.53v-1.636c0-0.267 0.216-0.483 0.483-0.483s0.483 0.216 0.483 0.483v1.636c0 0.825-0.671 1.496-1.496 1.496z"></path>
            <path fill="#12c65a" style="fill: var(--color8, #12c65a)" d="M20.514 3.404h-11.268c-0.356 0-0.644-0.288-0.644-0.644v-2.76h12.555v2.76c0 0.356-0.288 0.644-0.644 0.644z"></path>
            <path fill="#0fad4e" style="fill: var(--color9, #0fad4e)" d="M21.158 0v2.76c0 0.355-0.288 0.644-0.644 0.644h-1.268c0.355 0 0.644-0.288 0.644-0.644v-2.76h1.268z"></path>
            <path fill="#fff" style="fill: var(--color2, #fff)" d="M10.898 2.185h-0.062c-0.267 0-0.483-0.216-0.483-0.483s0.216-0.483 0.483-0.483h0.062c0.267 0 0.483 0.216 0.483 0.483s-0.216 0.483-0.483 0.483z"></path>
            <path fill="#fff" style="fill: var(--color2, #fff)" d="M18.925 2.185h-0.062c-0.267 0-0.483-0.216-0.483-0.483s0.216-0.483 0.483-0.483h0.062c0.267 0 0.483 0.216 0.483 0.483s-0.216 0.483-0.483 0.483z"></path>
            <path fill="#12c65a" style="fill: var(--color8, #12c65a)" d="M25.161 13.918c2.252 0 4.077-1.826 4.077-4.077s-1.825-4.077-4.077-4.077c-2.252 0-4.077 1.826-4.077 4.077s1.826 4.077 4.077 4.077z"></path>
            <path fill="#0fad4e" style="fill: var(--color9, #0fad4e)" d="M29.239 9.84c0 2.252-1.825 4.078-4.078 4.078-0.213 0-0.422-0.016-0.627-0.048 1.954-0.302 3.45-1.991 3.45-4.030s-1.496-3.728-3.45-4.029c0.205-0.032 0.414-0.048 0.627-0.048 2.252 0 4.078 1.825 4.078 4.078z"></path>
            <path fill="#fff" style="fill: var(--color2, #fff)" d="M24.272 11.611c-0.124 0-0.247-0.047-0.341-0.141l-0.751-0.751c-0.189-0.189-0.189-0.494 0-0.683s0.494-0.189 0.683 0l0.41 0.41 2.234-2.234c0.189-0.189 0.494-0.189 0.683 0s0.189 0.494 0 0.683l-2.575 2.575c-0.094 0.094-0.218 0.142-0.341 0.142z"></path>
            <path fill="#b5ccbe" style="fill: var(--color10, #b5ccbe)" d="M9.561 13.818h-1.867c-0.178 0-0.322-0.144-0.322-0.322v-1.867c0-0.178 0.144-0.322 0.322-0.322h1.867c0.178 0 0.322 0.144 0.322 0.322v1.867c0 0.178-0.144 0.322-0.322 0.322z"></path>
            <path fill="#b5ccbe" style="fill: var(--color10, #b5ccbe)" d="M9.561 20.27h-1.867c-0.178 0-0.322-0.144-0.322-0.322v-1.867c0-0.178 0.144-0.322 0.322-0.322h1.867c0.178 0 0.322 0.144 0.322 0.322v1.867c0 0.178-0.144 0.322-0.322 0.322z"></path>
        </symbol>
        <symbol id="location" viewBox="0 0 32 32">
            <path fill="#28a248" style="fill: var(--color11, #28a248)" d="M31.992 29.73l-2.514-13.851c-0.025-0.138-0.111-0.258-0.234-0.326l-6.328-3.519c-0.082-0.046-0.174-0.064-0.265-0.057l1.151 14.851-0.039 0.017 7.573 3.397c0.062 0.028 0.127 0.041 0.192 0.041 0.103 0 0.205-0.034 0.29-0.1 0.137-0.107 0.204-0.282 0.173-0.453z"></path>
            <path fill="#32bd56" style="fill: var(--color12, #32bd56)" d="M16 15.398l-6.472-3.371c-0.078-0.040-0.164-0.057-0.248-0.051 0.022-0.001 0.045-0.001 0.067 0.001l-1.151 14.851 7.611 3.415c0.061 0.028 0.127 0.041 0.192 0.041v-14.885z"></path>
            <path fill="#56d777" style="fill: var(--color13, #56d777)" d="M9.348 11.977c-0.090-0.007-0.182 0.011-0.265 0.057l-6.328 3.519c-0.123 0.068-0.209 0.188-0.234 0.326l-2.514 13.851c-0.031 0.171 0.035 0.346 0.173 0.453 0.084 0.066 0.186 0.1 0.289 0.1 0.065 0 0.131-0.014 0.192-0.041l7.532-3.379 1.154-14.886z"></path>
            <path fill="#2fb652" style="fill: var(--color14, #2fb652)" d="M22.652 11.977c-0.062 0.005-0.124 0.021-0.181 0.051l-6.472 3.371v14.885c0 0 0 0 0 0 0.065 0 0.131-0.014 0.192-0.041l7.611-3.415-1.151-14.851z"></path>
            <path fill="#ffdb56" style="fill: var(--color15, #ffdb56)" d="M1.76 20.077l-0.511 2.814 7.562-3.994 0.205-2.641-7.256 3.821z"></path>
            <path fill="#a8eefc" style="fill: var(--color16, #a8eefc)" d="M8.879 18.018l-0.068 0.878-7.562 3.994-1.241 6.84c-0.031 0.171 0.035 0.346 0.173 0.453 0.084 0.066 0.186 0.1 0.289 0.1 0.065 0 0.131-0.014 0.192-0.041l7.532-3.379 0.686-8.845z"></path>
            <path fill="#feb618" style="fill: var(--color3, #feb618)" d="M16.002 17.255l-6.986-0.999-0.205 2.641 7.189 10.917v-3.97l-4.29-6.755 4.292 0.513v-2.348z"></path>
            <path fill="#feb618" style="fill: var(--color3, #feb618)" d="M28.747 15.276l-3.040-1.691-2.878 0.672 0.036 0.465 0.142 1.833 5.739-1.28z"></path>
            <path fill="#ffdb56" style="fill: var(--color15, #ffdb56)" d="M23.263 19.849l-0.433-5.591-6.827 2.997v2.348l4.46-1.939 2.801 2.185z"></path>
            <path fill="#feb618" style="fill: var(--color3, #feb618)" d="M31.992 29.73l-0.631-3.479-8.354-9.695 0.255 3.292 8.567 10.326c0.13-0.108 0.193-0.277 0.163-0.444z"></path>
            <path fill="#ff4415" style="fill: var(--color17, #ff4415)" d="M16.030 1.717c-3.623 0-6.57 2.945-6.57 6.565 0 2.239 1.063 4.643 3.16 7.145 1.54 1.838 3.059 3.020 3.123 3.069 0.085 0.065 0.186 0.098 0.287 0.098s0.203-0.033 0.287-0.098c0.064-0.049 1.583-1.231 3.123-3.069 2.097-2.502 3.16-4.906 3.16-7.145-0-3.62-2.947-6.565-6.57-6.565zM18.463 8.281c0 1.343-1.089 2.431-2.433 2.431s-2.433-1.088-2.433-2.431c0-1.343 1.089-2.431 2.433-2.431s2.433 1.088 2.433 2.431z"></path>
            <path fill="#e13e15" style="fill: var(--color18, #e13e15)" d="M16.030 1.717c-0.287 0-0.57 0.019-0.847 0.054 3.224 0.417 5.723 3.177 5.723 6.51 0 2.239-1.063 4.643-3.16 7.145-0.99 1.182-1.971 2.092-2.563 2.604 0.328 0.285 0.537 0.447 0.56 0.465 0.085 0.065 0.186 0.098 0.287 0.098s0.203-0.033 0.287-0.098c0.064-0.049 1.583-1.231 3.123-3.069 2.097-2.502 3.16-4.906 3.16-7.145-0-3.62-2.947-6.565-6.57-6.565z"></path>
            <path fill="#ffbf33" style="fill: var(--color19, #ffbf33)" d="M16.192 30.242l2.83-1.27-3.023-3.128v4.439c0 0 0 0 0 0 0.065 0 0.131-0.014 0.192-0.041z"></path>
            <path fill="#1ea4e9" style="fill: var(--color20, #1ea4e9)" d="M29.478 15.88c-0.025-0.138-0.111-0.258-0.234-0.326l-0.498-0.277-5.739 1.28 8.354 9.695-1.883-10.371z"></path>
            <path fill="#1ea4e9" style="fill: var(--color20, #1ea4e9)" d="M16 30.283c0 0 0 0 0 0v-0.469l-7.189-10.917-0.615 7.931 7.611 3.415c0.061 0.028 0.127 0.041 0.192 0.041z"></path>
        </symbol>
        <symbol id="leaf" viewBox="0 0 41 32">
            <path fill="#a0cc00" style="fill: var(--color21, #a0cc00)" d="M0.416 31.288c0.191 0.239 0.437 0.428 0.717 0.551s0.586 0.177 0.891 0.156c0.305-0.021 0.601-0.115 0.862-0.274s0.48-0.38 0.637-0.642l2.853-4.756 0.040-0.024c1.097-0.658 2.326-1.065 3.598-1.191s2.558 0.032 3.762 0.462h0c3.94 1.407 8.237 1.453 12.206 0.13l0-0c2.702-0.901 5.143-2.45 7.107-4.512s3.394-4.575 4.163-7.318l3.889-13.87-4.448 2.53c-2.178 1.239-4.588 2.014-7.079 2.279s-5.010 0.011-7.399-0.743h-0c-1.823-0.576-3.759-0.703-5.642-0.37s-3.658 1.115-5.173 2.281l-0 0c-1.354 1.041-2.467 2.362-3.263 3.873s-1.258 3.175-1.353 4.88l-0.308 5.549c-0.066 1.179-0.372 2.332-0.9 3.389l-0.618 1.237-4.31 3.771c-0.368 0.322-0.597 0.773-0.64 1.26s0.103 0.971 0.408 1.353z"></path>
            <path fill="#85b200" style="fill: var(--color22, #85b200)" d="M21.952 21.398c-0.111 0.132-0.268 0.218-0.439 0.239s-0.344-0.025-0.483-0.127c-1.203-0.877-2.588-1.473-4.052-1.743s-2.971-0.207-4.407 0.185l-3.164 0.862c-0.086 0.023-0.176 0.030-0.264 0.018s-0.174-0.040-0.251-0.084c-0.077-0.044-0.145-0.103-0.2-0.174s-0.095-0.151-0.118-0.237l-0.016-0.060c-0.047-0.174-0.024-0.359 0.066-0.515s0.237-0.27 0.411-0.318l3.163-0.862c1.643-0.448 3.367-0.52 5.042-0.21s3.259 0.991 4.634 1.996c0.075 0.055 0.137 0.124 0.184 0.204s0.077 0.169 0.088 0.261c0.011 0.092 0.003 0.185-0.023 0.274s-0.070 0.171-0.13 0.242l-0.040 0.048z"></path>
            <path fill="#85b200" style="fill: var(--color22, #85b200)" d="M29.767 16.428c-0.092 0.148-0.238 0.255-0.407 0.298s-0.348 0.019-0.5-0.066c-3.381-1.936-7.35-2.579-11.169-1.809l-2.156 0.431c-0.014 0.003-0.029 0.006-0.043 0.010l-2.023 0.543c-0.174 0.047-0.359 0.022-0.515-0.068s-0.27-0.238-0.316-0.412l-0.016-0.060c-0.023-0.086-0.029-0.176-0.017-0.264s0.040-0.174 0.085-0.251 0.104-0.145 0.174-0.199c0.071-0.054 0.151-0.094 0.237-0.117l2.045-0.549 0.087-0.020 2.179-0.436c4.152-0.837 8.468-0.139 12.144 1.964 0.080 0.045 0.15 0.106 0.206 0.179s0.096 0.156 0.119 0.245 0.027 0.181 0.013 0.272c-0.014 0.091-0.046 0.178-0.095 0.256l-0.033 0.053z"></path>
            <path fill="#85b200" style="fill: var(--color22, #85b200)" d="M31.852 13.29c-0.743-0-1.484-0.053-2.22-0.158l-2.071-0.296-4.035-0.609c-0.178-0.027-0.338-0.123-0.445-0.268s-0.152-0.326-0.125-0.504l0.009-0.061c0.013-0.088 0.044-0.173 0.090-0.249s0.107-0.143 0.178-0.196c0.072-0.053 0.153-0.091 0.24-0.113s0.176-0.026 0.264-0.012l4.029 0.608 2.065 0.295c1.608 0.231 3.243 0.184 4.835-0.14 0.171-0.034 0.347-0 0.494 0.093s0.252 0.24 0.293 0.408l0.015 0.060c0.022 0.089 0.026 0.182 0.011 0.273s-0.048 0.178-0.097 0.255c-0.049 0.078-0.114 0.145-0.19 0.197s-0.161 0.088-0.252 0.106c-1.018 0.207-2.053 0.311-3.091 0.311z"></path>
            <path fill="#85b200" style="fill: var(--color22, #85b200)" d="M11.073 16.408c-0.15 0.099-0.333 0.134-0.509 0.097s-0.33-0.141-0.429-0.291l-0.265-0.401c-0.76-1.132-1.051-2.516-0.81-3.858 0.017-0.096 0.055-0.187 0.11-0.267s0.128-0.147 0.211-0.197c0.084-0.050 0.177-0.081 0.274-0.091s0.195 0 0.287 0.031l0.059 0.020c0.155 0.053 0.286 0.16 0.369 0.302s0.112 0.308 0.082 0.47c-0.17 0.977 0.044 1.982 0.597 2.805l0.174 0.262 0.096 0.147c0.049 0.075 0.083 0.158 0.099 0.245s0.016 0.177-0.002 0.265c-0.018 0.087-0.053 0.17-0.103 0.244s-0.114 0.137-0.189 0.186l-0.053 0.035z"></path>
            <path fill="#85b200" style="fill: var(--color22, #85b200)" d="M16.341 13.828h-0.062c-0.18 0-0.352-0.072-0.48-0.199s-0.199-0.3-0.199-0.48v-2.715c-0.002-1.558 0.396-3.090 1.154-4.451 0.045-0.082 0.107-0.154 0.182-0.211s0.16-0.098 0.252-0.12c0.091-0.022 0.186-0.025 0.279-0.009s0.181 0.051 0.259 0.103l0.052 0.035c0.142 0.095 0.243 0.241 0.283 0.407s0.015 0.342-0.069 0.491c-0.639 1.149-0.973 2.441-0.972 3.756v2.715c0 0.18-0.072 0.352-0.199 0.48s-0.3 0.199-0.48 0.199z"></path>
            <path fill="#85b200" style="fill: var(--color22, #85b200)" d="M21.659 11.085l-0.059-0.020c-0.084-0.028-0.163-0.073-0.23-0.131s-0.122-0.129-0.162-0.209c-0.040-0.080-0.064-0.166-0.070-0.255s0.005-0.178 0.033-0.263l0.142-0.427c0.434-1.29 1.354-2.361 2.564-2.983 0.087-0.045 0.183-0.070 0.28-0.074s0.195 0.013 0.286 0.050c0.091 0.037 0.172 0.093 0.239 0.165s0.117 0.156 0.148 0.249l0.020 0.059c0.051 0.155 0.044 0.324-0.019 0.475s-0.178 0.274-0.324 0.348c-0.873 0.454-1.535 1.228-1.849 2.16l-0.142 0.427c-0.057 0.171-0.179 0.312-0.34 0.392s-0.347 0.094-0.518 0.037z"></path>
            <path fill="#85b200" style="fill: var(--color22, #85b200)" d="M41.142 0l-4.384 6.104c-1.498 2.085-3.47 3.784-5.754 4.956s-4.815 1.783-7.382 1.783c-2.793 0-5.538 0.723-7.968 2.099s-4.463 3.358-5.9 5.753l-6.23 10.383c-0.141 0.235-0.331 0.437-0.557 0.591s-0.483 0.258-0.754 0.304c-0.27 0.046-0.547 0.032-0.812-0.040s-0.51-0.2-0.721-0.375c-0.21-0.176-0.38-0.395-0.497-0.642s-0.18-0.518-0.183-0.792c-0.003-0.274 0.053-0.545 0.165-0.796s0.277-0.473 0.483-0.654l4.31-3.771 2.94-5.613c1.467-2.801 3.673-5.147 6.378-6.784s5.807-2.502 8.969-2.503c4.218-0 8.291-1.539 11.456-4.327l6.441-5.678z"></path>
            <path fill="#719600" style="fill: var(--color23, #719600)" d="M6.377 26.323l-2.853 4.755c-0.141 0.235-0.331 0.437-0.557 0.591s-0.483 0.258-0.754 0.304c-0.27 0.046-0.547 0.032-0.812-0.039s-0.51-0.2-0.721-0.375-0.38-0.395-0.497-0.642c-0.117-0.248-0.18-0.518-0.183-0.792s0.053-0.545 0.165-0.796c0.112-0.25 0.277-0.473 0.483-0.654l4.31-3.771 1.419 1.419z"></path>
        </symbol>
        <symbol id="search" viewBox="0 0 32 32">
            <path stroke-linejoin="miter" stroke-linecap="butt" stroke-miterlimit="4" stroke-width="1.5238" d="M26.912 13.837c0 7.221-5.854 13.075-13.075 13.075s-13.075-5.854-13.075-13.075c0-7.221 5.854-13.075 13.075-13.075s13.075 5.854 13.075 13.075z"></path>
            <path stroke-linejoin="miter" stroke-linecap="round" stroke-miterlimit="4" stroke-width="1.5238" d="M30.476 30.476l-7.262-7.262"></path>
        </symbol>
        <symbol id="cart" viewBox="0 0 34 32">
            <path d="M10.489 25.135c-1.896 0-3.433 1.537-3.433 3.433s1.537 3.433 3.433 3.433c1.896 0 3.433-1.537 3.433-3.433s-1.537-3.433-3.433-3.433zM10.489 30.474c-1.053 0-1.907-0.854-1.907-1.907s0.854-1.907 1.907-1.907 1.907 0.854 1.907 1.907c0 1.053-0.854 1.907-1.907 1.907z"></path>
            <path d="M24.982 25.135c-1.896 0-3.433 1.537-3.433 3.433s1.537 3.433 3.433 3.433c1.896 0 3.433-1.537 3.433-3.433s-1.537-3.433-3.433-3.433zM24.982 30.474c-1.053 0-1.907-0.854-1.907-1.907s0.854-1.907 1.907-1.907 1.907 0.854 1.907 1.907c0 1.053-0.854 1.907-1.907 1.907z"></path>
            <path d="M32.725 5.111c-0.159-0.174-0.376-0.282-0.61-0.305l-24.829-0.343-0.687-2.098c-0.484-1.402-1.797-2.349-3.28-2.365h-2.555c-0.421 0-0.763 0.342-0.763 0.763s0.342 0.763 0.763 0.763h2.555c0.829 0.018 1.56 0.551 1.831 1.335l4.844 14.608-0.381 0.877c-0.425 1.097-0.298 2.332 0.343 3.318 0.635 0.969 1.703 1.567 2.861 1.602h14.837c0.421 0 0.763-0.341 0.763-0.763s-0.341-0.763-0.763-0.763h-14.837c-0.654-0.016-1.256-0.36-1.602-0.915-0.342-0.548-0.413-1.224-0.191-1.831l0.305-0.687 16.057-1.678c1.764-0.194 3.215-1.477 3.623-3.204l1.831-7.666c0.083-0.221 0.039-0.469-0.115-0.648zM29.521 13.082c-0.248 1.112-1.191 1.931-2.327 2.021l-15.867 1.64-3.547-10.756 23.38 0.343-1.64 6.751z"></path>
        </symbol>
    </defs>
</svg>
